<svg width="1600" height="1600" version="1.1" xmlns="http://www.w3.org/2000/svg" desc="Created with imagetracer.js version 1.2.6" ><path fill="rgb(0,0,0)" stroke="rgb(0,0,0)" stroke-width="1" opacity="0" d="M 0 0 L 1600 0 L 1600 1600 L 0 1600 L 0 0 Z M 533 79 L 503 85 L 479 94 Q 456 105 439 120 Q 416 139 401 166 Q 388 187 382 216 L 381 227 L 380 228 L 380 236 L 379 237 L 379 378 L 377 379 L 233 379 Q 231 382 225 380 L 203 385 L 177 395 Q 155 405 139 420 Q 116 439 101 466 Q 91 483 85 504 L 81 521 L 80 536 L 79 537 L 79 564 L 80 565 L 81 580 L 90 612 Q 102 641 121 663 Q 142 687 173 703 L 203 715 L 233 721 L 367 721 L 368 720 L 380 719 Q 424 708 453 681 L 455 681 L 919 1146 L 919 1148 L 900 1173 L 890 1192 L 881 1220 L 879 1231 L 879 1240 L 878 1241 L 878 1361 L 879 1362 L 879 1372 L 881 1379 L 881 1384 Q 892 1433 922 1465 Q 940 1485 965 1499 Q 981 1509 1002 1515 L 1032 1521 L 1068 1521 L 1098 1515 Q 1135 1503 1162 1480 Q 1184 1461 1199 1435 Q 1212 1413 1218 1385 L 1219 1374 L 1220 1373 L 1220 1365 L 1221 1364 L 1221 1222 L 1224 1221 L 1368 1221 L 1369 1220 L 1381 1219 Q 1404 1214 1424 1205 Q 1445 1195 1462 1180 Q 1484 1161 1499 1135 Q 1509 1118 1515 1097 L 1519 1080 L 1520 1065 L 1521 1064 L 1521 1037 L 1520 1036 L 1519 1021 L 1510 989 Q 1498 959 1479 938 Q 1458 913 1428 897 L 1398 885 L 1368 879 L 1234 879 L 1233 880 L 1221 881 Q 1176 892 1148 919 L 1146 919 L 681 455 L 681 453 L 700 428 L 710 409 L 719 381 L 721 370 L 721 361 L 722 360 L 722 240 L 721 239 L 721 229 L 719 222 L 719 217 Q 708 167 678 136 Q 650 104 608 88 L 587 82 L 570 80 L 569 79 L 533 79 Z " /><path fill="rgb(252,252,252)" stroke="rgb(252,252,252)" stroke-width="1" opacity="0.8862745098039215" d="M 544.5 85 L 576.5 87 L 594.5 91 L 616.5 99 Q 651.6 114.9 675 142.5 Q 701.2 171.8 712 216.5 L 712 221.5 L 714 228.5 L 714 236.5 L 715 237.5 L 715 360.5 L 714 361.5 L 714 369.5 L 712 380.5 L 705 402.5 Q 693.3 430.3 674 450.5 L 674 455.5 L 1140.5 924 Q 1142.8 927.2 1149.5 926 Q 1178.9 897.4 1226.5 887 L 1243.5 886 L 1244.5 885 L 1355.5 885 L 1356.5 886 L 1368.5 886 L 1385.5 889 L 1413.5 898 Q 1451.3 914.7 1476 944.5 Q 1496.1 967.9 1507 1000.5 L 1511 1015.5 L 1513 1026.5 L 1513 1034.5 L 1514 1035.5 L 1514 1064.5 L 1513 1065.5 L 1512 1079.5 L 1507 1099.5 L 1494 1129.5 Q 1478.6 1156.6 1455.5 1176 Q 1424.7 1203.7 1375.5 1213 L 1356.5 1214 L 1355.5 1215 L 1219.5 1215 L 1216 1217.5 L 1214 1222.5 L 1214 1364.5 L 1213 1365.5 L 1213 1373.5 L 1211 1384.5 Q 1196.1 1443.1 1155.5 1476 Q 1135.4 1493.4 1108.5 1504 L 1093.5 1509 L 1075.5 1513 L 1044.5 1515 L 1043.5 1514 L 1031.5 1514 L 1030.5 1513 L 1023.5 1513 L 1013.5 1511 L 983.5 1501 Q 948.4 1485.1 925 1457.5 Q 898.8 1428.2 888 1383.5 L 888 1378.5 L 886 1371.5 L 886 1363.5 L 885 1362.5 L 885 1239.5 L 886 1238.5 L 886 1230.5 L 888 1219.5 L 895 1197.5 Q 906.7 1169.7 926 1149.5 L 926 1143.5 L 459.5 676 Q 457.2 672.8 450.5 674 Q 421.1 702.6 373.5 713 L 356.5 714 L 355.5 715 L 244.5 715 L 243.5 714 L 231.5 714 L 214.5 711 L 186.5 702 Q 148.7 685.3 124 655.5 Q 103.9 632.1 93 599.5 L 89 584.5 L 87 573.5 L 87 565.5 L 86 564.5 L 86 535.5 L 87 534.5 L 88 520.5 L 93 500.5 L 106 470.5 Q 121.4 443.4 144.5 424 Q 175.3 396.3 224.5 387 L 243.5 386 L 244.5 385 L 380.5 385 L 384 382.5 L 386 377.5 L 386 235.5 L 387 234.5 L 387 226.5 L 389 215.5 Q 403.9 156.9 444.5 124 Q 464.6 106.6 491.5 96 L 514.5 89 L 531.5 86 L 543.5 86 L 544.5 85 Z M 545 131 L 534 133 L 513 140 Q 493 148 479 161 Q 459 177 446 201 L 439 216 L 432 240 L 431 254 L 430 255 L 430 405 L 428 413 L 423 421 L 414 427 L 406 429 L 265 429 L 264 430 L 244 431 Q 204 439 179 461 Q 159 477 146 501 Q 136 518 132 541 L 132 560 L 139 585 Q 147 606 161 622 Q 181 646 213 660 L 234 667 L 244 669 L 251 669 L 252 670 L 264 670 L 265 671 L 336 671 L 337 670 L 355 669 L 368 666 Q 383 661 396 653 Q 413 642 428 627 L 438 622 L 447 620 Q 470 618 482 628 L 971 1118 L 977 1128 L 980 1140 L 980 1154 L 977 1166 L 971 1176 Q 956 1190 945 1208 Q 937 1220 933 1236 L 929 1259 L 929 1344 L 930 1345 L 931 1359 L 939 1387 Q 948 1407 961 1423 Q 977 1441 1000 1454 L 1017 1462 L 1044 1469 L 1062 1468 L 1083 1462 Q 1105 1453 1122 1439 Q 1155 1412 1167 1365 L 1169 1355 L 1169 1346 L 1170 1345 L 1170 1196 L 1172 1188 L 1177 1180 L 1187 1173 L 1195 1171 L 1336 1171 L 1337 1170 L 1357 1169 Q 1396 1161 1422 1139 Q 1441 1123 1454 1100 Q 1464 1082 1468 1060 L 1468 1041 L 1461 1016 Q 1453 994 1439 979 Q 1419 954 1388 940 L 1367 933 L 1357 931 L 1350 931 L 1349 930 L 1337 930 L 1336 929 L 1265 929 L 1264 930 L 1246 931 L 1233 934 Q 1217 939 1205 947 Q 1187 958 1173 973 L 1163 978 L 1154 980 L 1134 979 Q 1121 975 1113 967 L 629 483 L 623 473 L 620 461 L 620 447 L 623 435 L 629 425 Q 644 411 655 393 Q 663 380 667 365 L 671 342 L 671 257 L 670 256 L 669 242 L 661 214 Q 652 193 639 178 Q 619 155 591 141 L 563 132 L 545 131 Z " /><path fill="rgb(255,255,255)" stroke="rgb(255,255,255)" stroke-width="1" opacity="0.011764705882352941" d="M 532.5 79 L 568.5 79 L 569.5 80 L 586.5 82 L 607.5 88 Q 650.3 104.2 678 135.5 Q 707.5 167 719 216.5 L 719 221.5 L 721 228.5 L 721 238.5 L 722 239.5 L 722 359.5 L 721 360.5 L 721 369.5 L 719 380.5 L 710 408.5 L 700 427.5 L 681 452.5 L 681 454.5 L 1145.5 919 L 1147.5 919 Q 1175.7 891.7 1220.5 881 L 1232.5 880 L 1233.5 879 L 1367.5 879 L 1397.5 885 L 1427.5 897 Q 1457.7 912.8 1479 937.5 Q 1498.3 959.2 1510 988.5 L 1519 1020.5 L 1520 1035.5 L 1521 1036.5 L 1521 1063.5 L 1520 1064.5 L 1519 1079.5 L 1515 1096.5 Q 1509 1117.5 1499 1134.5 Q 1483.7 1160.7 1461.5 1180 Q 1444.7 1194.7 1423.5 1205 Q 1404.5 1214.5 1380.5 1219 L 1368.5 1220 L 1367.5 1221 L 1223.5 1221 L 1221 1222 L 1221 1363.5 L 1220 1364.5 L 1220 1372.5 L 1219 1373.5 L 1218 1384.5 Q 1211.8 1412.8 1199 1434.5 Q 1183.7 1460.7 1161.5 1480 Q 1135.4 1503.4 1097.5 1515 L 1067.5 1521 L 1031.5 1521 L 1001.5 1515 Q 981.3 1508.7 964.5 1499 Q 940.1 1484.9 922 1464.5 Q 892.5 1433 881 1383.5 L 881 1378.5 L 879 1371.5 L 879 1361.5 L 878 1360.5 L 878 1240.5 L 879 1239.5 L 879 1230.5 L 881 1219.5 L 890 1191.5 L 900 1172.5 L 919 1147.5 L 919 1145.5 L 454.5 681 L 452.5 681 Q 424.3 708.3 379.5 719 L 367.5 720 L 366.5 721 L 232.5 721 L 202.5 715 L 172.5 703 Q 142.3 687.2 121 662.5 Q 101.7 640.8 90 611.5 L 81 579.5 L 80 564.5 L 79 563.5 L 79 536.5 L 80 535.5 L 81 520.5 L 85 503.5 Q 91 482.5 101 465.5 Q 116.3 439.3 138.5 420 Q 155.3 405.3 176.5 395 L 202.5 385 L 224.5 380 Q 230.7 381.7 232.5 379 L 376.5 379 L 379 378 L 379 236.5 L 380 235.5 L 380 227.5 L 381 226.5 L 382 215.5 Q 388.2 187.2 401 165.5 Q 416.3 139.3 438.5 120 Q 456.1 104.6 478.5 94 L 502.5 85 L 532.5 79 Z M 545 85 L 544 86 L 532 86 L 515 89 L 492 96 Q 465 107 445 124 Q 404 157 389 216 L 387 227 L 387 235 L 386 236 L 386 378 L 384 383 L 381 385 L 245 385 L 244 386 L 225 387 Q 175 396 145 424 Q 121 443 106 471 L 93 501 L 88 521 L 87 535 L 86 536 L 86 565 L 87 566 L 87 574 L 89 585 L 93 600 Q 104 632 124 656 Q 149 685 187 702 L 215 711 L 232 714 L 244 714 L 245 715 L 356 715 L 357 714 L 374 713 Q 421 703 451 674 Q 457 673 460 676 L 926 1144 L 926 1150 Q 907 1170 895 1198 L 888 1220 L 886 1231 L 886 1239 L 885 1240 L 885 1363 L 886 1364 L 886 1372 L 888 1379 L 888 1384 Q 899 1428 925 1458 Q 948 1485 984 1501 L 1014 1511 L 1024 1513 L 1031 1513 L 1032 1514 L 1044 1514 L 1045 1515 L 1076 1513 L 1094 1509 L 1109 1504 Q 1135 1493 1156 1476 Q 1196 1443 1211 1385 L 1213 1374 L 1213 1366 L 1214 1365 L 1214 1223 L 1216 1218 L 1220 1215 L 1356 1215 L 1357 1214 L 1376 1213 Q 1425 1204 1456 1176 Q 1479 1157 1494 1130 L 1507 1100 L 1512 1080 L 1513 1066 L 1514 1065 L 1514 1036 L 1513 1035 L 1513 1027 L 1511 1016 L 1507 1001 Q 1496 968 1476 945 Q 1451 915 1414 898 L 1386 889 L 1369 886 L 1357 886 L 1356 885 L 1245 885 L 1244 886 L 1227 887 Q 1179 897 1150 926 Q 1143 927 1141 924 L 674 456 L 674 451 Q 693 430 705 403 L 712 381 L 714 370 L 714 362 L 715 361 L 715 238 L 714 237 L 714 229 L 712 222 L 712 217 Q 701 172 675 143 Q 652 115 617 99 L 595 91 L 577 87 L 545 85 Z " /><path fill="rgb(255,255,255)" stroke="rgb(255,255,255)" stroke-width="1" opacity="0.011764705882352941" d="M 544.5 131 L 562.5 132 L 590.5 141 Q 619.4 154.6 639 177.5 Q 652.3 193.2 661 213.5 L 669 241.5 L 670 255.5 L 671 256.5 L 671 341.5 L 667 364.5 Q 662.7 380.2 655 392.5 Q 644 410.5 629 424.5 L 623 434.5 L 620 446.5 L 620 460.5 L 623 472.5 L 629 482.5 L 1112.5 967 Q 1120.6 975.4 1133.5 979 L 1153.5 980 L 1162.5 978 L 1172.5 973 Q 1186.9 958.4 1204.5 947 Q 1217.1 939.1 1232.5 934 L 1245.5 931 L 1263.5 930 L 1264.5 929 L 1335.5 929 L 1336.5 930 L 1348.5 930 L 1349.5 931 L 1356.5 931 L 1366.5 933 L 1387.5 940 Q 1418.7 953.8 1439 978.5 Q 1452.6 994.4 1461 1015.5 L 1468 1040.5 L 1468 1059.5 Q 1463.7 1082.2 1454 1099.5 Q 1441.2 1122.7 1421.5 1139 Q 1396.4 1161.4 1356.5 1169 L 1336.5 1170 L 1335.5 1171 L 1194.5 1171 L 1186.5 1173 L 1177 1179.5 L 1172 1187.5 L 1170 1195.5 L 1170 1344.5 L 1169 1345.5 L 1169 1354.5 L 1167 1364.5 Q 1154.8 1412.3 1121.5 1439 Q 1104.8 1453.3 1082.5 1462 L 1061.5 1468 L 1043.5 1469 L 1016.5 1462 L 999.5 1454 Q 977.1 1441.4 961 1422.5 Q 947.7 1406.8 939 1386.5 L 931 1358.5 L 930 1344.5 L 929 1343.5 L 929 1258.5 L 933 1235.5 Q 937.3 1219.8 945 1207.5 Q 956 1189.5 971 1175.5 L 977 1165.5 L 980 1153.5 L 980 1139.5 L 977 1127.5 L 971 1117.5 L 481.5 628 Q 469.8 618.2 446.5 620 L 437.5 622 L 427.5 627 Q 413.1 641.6 395.5 653 Q 382.9 660.9 367.5 666 L 354.5 669 L 336.5 670 L 335.5 671 L 264.5 671 L 263.5 670 L 251.5 670 L 250.5 669 L 243.5 669 L 233.5 667 L 212.5 660 Q 181.3 646.2 161 621.5 Q 147.4 605.6 139 584.5 L 132 559.5 L 132 540.5 Q 136.3 517.8 146 500.5 Q 158.8 477.3 178.5 461 Q 203.6 438.6 243.5 431 L 263.5 430 L 264.5 429 L 405.5 429 L 413.5 427 L 423 420.5 L 428 412.5 L 430 404.5 L 430 254.5 L 431 253.5 L 432 239.5 L 439 215.5 L 446 200.5 Q 458.8 177.3 478.5 161 Q 493.3 148.3 512.5 140 L 533.5 133 L 544.5 131 Z " /></svg>